<svg id="Layer_1" data-name="Layer 1" xmlns="http://www.w3.org/2000/svg" viewBox="0 0 1080 1080"><defs><style>.cls-1,.cls-2{fill:none;stroke-miterlimit:10;stroke-width:5px;}.cls-1{stroke:#b3b3b3;}.cls-2{stroke:#999;stroke-linecap:round;}</style></defs><path class="cls-1" d="M509.77,438.44a30.4,30.4,0,0,1,60.46,0"/><path d="M650.58,632.12l-10.39-83.2a3.14,3.14,0,0,0-2.34-2.68l-86.21-23.13a12,12,0,0,1-8.89-11.55,11.62,11.62,0,0,1,.42-3.13A12,12,0,0,1,557.82,500l74.27,19.93a3.23,3.23,0,0,0,4-3.48l-6.59-52.72a28.86,28.86,0,0,0-28.63-25.27H479.1a28.86,28.86,0,0,0-28.63,25.27L437.45,568a3.22,3.22,0,0,0,2.33,3.49L527.46,595a12,12,0,0,1,8.89,11.54,11.68,11.68,0,0,1-.41,3.14,12,12,0,0,1-14.65,8.44l-83.65-22.39a3.18,3.18,0,0,0-4,2.69l-4.22,33.71a32.59,32.59,0,0,0,32.34,36.63H618.24A32.59,32.59,0,0,0,650.58,632.12ZM568.79,448a6.4,6.4,0,1,1,0,12.79,2.74,2.74,0,0,1-.51,0,6.39,6.39,0,0,1,.51-12.76ZM511.72,460.8a2.74,2.74,0,0,1-.51,0,6.53,6.53,0,1,1,.51,0Z"/><path class="cls-2" d="M570.23,452.83a30.4,30.4,0,0,1-60.46,0"/></svg>